# xmcd CD database file
#
# Track frame offsets:
#	150
#	45505
#	76038
#	105242
#	141460
#	184853
#	223665
#	247481
#
# Disc length: 4474 seconds
#
# Revision: 0
# Processed by: cddbd v1.5.2PL0 Copyright (c) Steve Scherf et al.
# Submitted via: CDex 1.51
#
DISCID=6e117808
DTITLE=Sonny Rollins - 80th Birthday Celebration [CD2)
DYEAR=2010
DGENRE=Jazz
TTITLE0=Moritat (Mack The Knife)
TTITLE1=St. Thomas
TTITLE2=You Don't Know What Love Is
TTITLE3=Decision
TTITLE4=Sonnysphere
TTITLE5=Valse Hot
TTITLE6=There Is No Greater Love
TTITLE7=The Freedom Suite
EXTD=YEAR: 2010
EXTT0=
EXTT1=
EXTT2=
EXTT3=
EXTT4=
EXTT5=
EXTT6=
EXTT7=
PLAYORDER=
